<svg width="913" height="128" viewBox="0 0 913 128" fill="none" xmlns="http://www.w3.org/2000/svg">
<path d="M209.852 119.075C209.014 119.075 208.594 119.075 208.274 118.912C207.992 118.769 207.763 118.539 207.62 118.258C207.457 117.937 207.457 117.518 207.457 116.68V9.72458C207.457 8.88604 207.457 8.46677 207.62 8.14649C207.763 7.86477 207.992 7.63572 208.274 7.49217C208.594 7.32898 209.014 7.32898 209.852 7.32898H252.183C263.598 7.32898 272.683 10.6516 279.438 17.2967C286.31 23.8253 289.746 32.2775 289.746 42.6533C289.746 51.397 287.3 58.625 282.408 64.3376C277.633 69.9335 270.703 73.7224 261.618 75.7043L294.395 117.134C294.887 117.756 295.133 118.067 295.132 118.329C295.131 118.556 295.027 118.771 294.85 118.912C294.645 119.075 294.248 119.075 293.455 119.075H272.516C272.092 119.075 271.88 119.075 271.685 119.021C271.512 118.974 271.348 118.895 271.203 118.789C271.039 118.67 270.907 118.505 270.643 118.173L237.748 76.9284H227.898V116.68C227.898 117.518 227.898 117.937 227.735 118.258C227.591 118.539 227.362 118.769 227.08 118.912C226.76 119.075 226.341 119.075 225.502 119.075H209.852ZM227.898 59.0914H249.737C255.794 59.0914 260.569 57.6924 264.064 54.8944C267.558 51.9799 269.305 47.8995 269.305 42.6533C269.305 37.4071 267.558 33.3851 264.064 30.5871C260.569 27.6725 255.794 26.2153 249.737 26.2153H227.898V59.0914Z" fill="#506CF7"/>
<path d="M342.89 120.824C329.611 120.824 318.663 116.569 310.044 108.058C301.541 99.5478 297.289 88.6474 297.289 75.357C297.289 62.4164 301.599 51.6326 310.218 43.0055C318.837 34.2619 329.728 29.8901 342.89 29.8901C355.003 29.8901 365.02 33.7373 372.94 41.4317C380.977 49.1261 384.995 59.735 384.995 73.2585C384.995 74.6964 384.973 76.0456 384.929 77.3061C384.902 78.0755 384.888 78.4602 384.721 78.7691C384.577 79.0359 384.342 79.263 384.07 79.3979C383.756 79.554 383.36 79.554 382.57 79.554H316.158C316.624 86.6655 319.362 92.4363 324.37 96.8664C329.378 101.18 335.61 103.337 343.064 103.337C353.312 103.337 361.163 99.6154 366.617 92.1728C367.185 91.399 367.468 91.0121 367.786 90.8504C368.08 90.7007 368.367 90.6548 368.693 90.705C369.046 90.7594 369.408 91.0184 370.133 91.5366L380.899 99.234C381.54 99.6923 381.861 99.9215 382.026 100.236C382.167 100.504 382.226 100.837 382.185 101.137C382.136 101.488 381.923 101.798 381.497 102.419C373.066 114.689 360.197 120.824 342.89 120.824ZM317.032 65.5641H365.602C364.554 59.5019 361.817 54.7803 357.391 51.3994C353.081 47.902 348.014 46.1532 342.191 46.1532C336.134 46.1532 330.718 47.8437 325.942 51.2246C321.283 54.6054 318.313 59.3853 317.032 65.5641Z" fill="#506CF7"/>
<path d="M513.198 119.075C512.36 119.075 511.94 119.075 511.62 118.912C511.338 118.769 511.109 118.539 510.966 118.258C510.803 117.937 510.803 117.518 510.803 116.68V69.936C510.803 62.8245 509.463 57.2868 506.784 53.323C504.222 49.3592 500.378 47.3773 495.253 47.3773C489.08 47.3773 484.13 49.7673 480.402 54.5471C476.675 59.327 474.695 66.0305 474.462 74.6575V116.68C474.462 117.518 474.462 117.937 474.299 118.258C474.155 118.539 473.926 118.769 473.645 118.912C473.324 119.075 472.905 119.075 472.067 119.075H457.639C456.801 119.075 456.382 119.075 456.061 118.912C455.78 118.769 455.55 118.539 455.407 118.258C455.244 117.937 455.244 117.518 455.244 116.68V69.936C455.244 62.8245 453.904 57.2868 451.225 53.323C448.663 49.3592 444.819 47.3773 439.694 47.3773C433.288 47.3773 428.163 49.8839 424.32 54.8969C420.592 59.9099 418.729 66.9631 418.729 76.0565V116.68C418.729 117.518 418.729 117.937 418.565 118.258C418.422 118.539 418.193 118.769 417.911 118.912C417.591 119.075 417.172 119.075 416.333 119.075H401.906C401.067 119.075 400.648 119.075 400.328 118.912C400.046 118.769 399.817 118.539 399.673 118.258C399.51 117.937 399.51 117.518 399.51 116.68V34.0344C399.51 33.1959 399.51 32.7766 399.673 32.4563C399.817 32.1746 400.046 31.9455 400.328 31.802C400.648 31.6388 401.067 31.6388 401.906 31.6388H416.333C417.172 31.6388 417.591 31.6388 417.911 31.802C418.193 31.9455 418.422 32.1746 418.565 32.4563C418.729 32.7766 418.729 33.1959 418.729 34.0344V43.5301C424.087 34.4367 432.356 29.8901 443.538 29.8901C456.7 29.8901 465.727 35.6609 470.618 47.2025C473.064 41.7231 476.792 37.4679 481.8 34.4368C486.925 31.4056 492.516 29.8901 498.573 29.8901C508.357 29.8901 516.044 33.2126 521.635 39.8578C527.226 46.503 530.021 55.4798 530.021 66.7883V116.68C530.021 117.518 530.021 117.937 529.858 118.258C529.714 118.539 529.485 118.769 529.203 118.912C528.883 119.075 528.464 119.075 527.625 119.075H513.198Z" fill="#506CF7"/>
<path d="M654.999 116.68C654.999 117.518 654.999 117.937 654.836 118.258C654.693 118.539 654.463 118.769 654.182 118.912C653.861 119.075 653.442 119.075 652.604 119.075H638.269C637.868 119.075 637.667 119.075 637.481 119.026C637.315 118.983 637.158 118.912 637.017 118.815C636.858 118.707 636.726 118.556 636.462 118.253L569.656 41.5376V116.68C569.656 117.518 569.656 117.937 569.492 118.258C569.349 118.539 569.12 118.769 568.838 118.912C568.518 119.075 568.099 119.075 567.26 119.075H551.61C550.771 119.075 550.352 119.075 550.032 118.912C549.75 118.769 549.521 118.539 549.377 118.258C549.214 117.937 549.214 117.518 549.214 116.68V9.72458C549.214 8.88604 549.214 8.46677 549.377 8.14649C549.521 7.86477 549.75 7.63572 550.032 7.49217C550.352 7.32898 550.771 7.32898 551.61 7.32898H565.928C566.335 7.32898 566.539 7.32898 566.728 7.37919C566.895 7.42368 567.053 7.4969 567.196 7.59558C567.357 7.70695 567.489 7.86195 567.752 8.17197L634.383 86.4652V9.72458C634.383 8.88604 634.383 8.46677 634.546 8.14649C634.69 7.86477 634.919 7.63572 635.201 7.49217C635.521 7.32898 635.94 7.32898 636.779 7.32898H652.604C653.442 7.32898 653.861 7.32898 654.182 7.49217C654.463 7.63572 654.693 7.86477 654.836 8.14649C654.999 8.46677 654.999 8.88604 654.999 9.72458V116.68Z" fill="#506CF7"/>
<path d="M748.157 107.709C739.421 116.452 728.589 120.824 715.66 120.824C702.731 120.824 691.841 116.452 682.989 107.709C674.253 98.8483 669.885 88.0645 669.885 75.357C669.885 62.6496 674.253 51.924 682.989 43.1804C691.841 34.3202 702.731 29.8901 715.66 29.8901C728.589 29.8901 739.421 34.3202 748.157 43.1804C757.009 51.924 761.435 62.6496 761.435 75.357C761.435 88.0645 757.009 98.8483 748.157 107.709ZM715.66 102.987C723.231 102.987 729.463 100.364 734.354 95.1177C739.363 89.7549 741.867 83.168 741.867 75.357C741.867 67.546 739.363 61.0174 734.354 55.7713C729.463 50.4085 723.231 47.7271 715.66 47.7271C707.973 47.7271 701.625 50.4085 696.617 55.7713C691.725 61.0174 689.279 67.546 689.279 75.357C689.279 83.168 691.725 89.7549 696.617 95.1177C701.625 100.364 707.973 102.987 715.66 102.987Z" fill="#506CF7"/>
<path d="M804.111 119.95C795.259 119.95 788.037 117.501 782.446 112.605C776.972 107.592 774.235 100.364 774.235 90.9207V9.72704C774.235 8.8885 774.235 8.46923 774.398 8.14895C774.542 7.86723 774.771 7.63818 775.052 7.49463C775.373 7.33144 775.792 7.33144 776.63 7.33144H791.058C791.896 7.33144 792.316 7.33144 792.636 7.49463C792.918 7.63818 793.147 7.86723 793.29 8.14895C793.453 8.46923 793.453 8.8885 793.453 9.72704V31.6388H816.042C816.88 31.6388 817.3 31.6388 817.62 31.802C817.902 31.9455 818.131 32.1746 818.274 32.4563C818.437 32.7766 818.437 33.1959 818.437 34.0344V46.3807C818.437 47.2193 818.437 47.6385 818.274 47.9588C818.131 48.2406 817.902 48.4696 817.62 48.6132C817.3 48.7763 816.88 48.7763 816.042 48.7763H793.453V87.773C793.453 93.1358 794.618 96.983 796.948 99.3146C799.277 101.53 803.004 102.637 808.129 102.637C811.477 102.637 814.342 102.266 816.725 101.523C817.356 101.326 817.672 101.227 817.881 101.283C818.075 101.334 818.215 101.438 818.322 101.607C818.437 101.79 818.437 102.099 818.437 102.716V116.254C818.437 116.888 818.437 117.206 818.321 117.483C818.223 117.719 818.046 117.947 817.842 118.101C817.602 118.282 817.312 118.356 816.731 118.504C812.962 119.468 808.755 119.95 804.111 119.95Z" fill="#506CF7"/>
<path d="M870.894 120.824C857.616 120.824 846.667 116.569 838.048 108.058C829.545 99.5478 825.294 88.6474 825.294 75.357C825.294 62.4164 829.604 51.6326 838.223 43.0055C846.842 34.2619 857.732 29.8901 870.894 29.8901C883.008 29.8901 893.024 33.7373 900.945 41.4317C908.982 49.1261 913 59.735 913 73.2585C913 74.6948 912.978 76.0426 912.934 77.302C912.907 78.0728 912.893 78.4582 912.726 78.7676C912.581 79.035 912.346 79.2624 912.073 79.3976C911.758 79.554 911.362 79.554 910.57 79.554H844.163C844.629 86.6655 847.366 92.4363 852.375 96.8664C857.383 101.18 863.615 103.337 871.069 103.337C881.317 103.337 889.168 99.6154 894.622 92.1728C895.189 91.399 895.473 91.0121 895.791 90.8504C896.085 90.7007 896.372 90.6548 896.698 90.705C897.05 90.7594 897.412 91.0184 898.137 91.5366L908.904 99.234C909.545 99.6923 909.865 99.9215 910.031 100.236C910.172 100.504 910.23 100.837 910.189 101.137C910.141 101.488 909.928 101.798 909.501 102.419C901.071 114.689 888.202 120.824 870.894 120.824ZM845.037 65.5641H893.607C892.559 59.5019 889.821 54.7803 885.395 51.3994C881.086 47.902 876.019 46.1532 870.195 46.1532C864.139 46.1532 858.722 47.8437 853.947 51.2246C849.288 54.6054 846.318 59.3853 845.037 65.5641Z" fill="#506CF7"/>
<path fill-rule="evenodd" clip-rule="evenodd" d="M85.9915 73.3544C83.7386 70.3495 82.6122 68.847 81.2312 68.3098C80.0215 67.8393 78.6794 67.8393 77.4697 68.3098C76.0887 68.847 74.9622 70.3495 72.7094 73.3544L41.6958 114.721C38.4913 118.995 36.8891 121.132 36.9265 122.921C36.959 124.477 37.6891 125.937 38.915 126.897C40.3238 128 42.9949 128 48.3369 128H110.364C115.706 128 118.377 128 119.786 126.897C121.012 125.937 121.742 124.477 121.774 122.921C121.812 121.132 120.21 118.995 117.005 114.721L85.9915 73.3544ZM63.4807 8.30027C63.4807 5.3949 63.4807 3.94222 64.0461 2.83252C64.5435 1.85639 65.3371 1.06278 66.3132 0.565422C67.4229 0 68.8756 0 71.781 0H86.9208C89.8261 0 91.2788 0 92.3885 0.565422C93.3646 1.06278 94.1582 1.85639 94.6556 2.83252C95.221 3.94222 95.221 5.3949 95.221 8.30027V41.0516L118.368 17.8965C120.423 15.8411 121.45 14.8133 122.635 14.4283C123.677 14.0896 124.799 14.0896 125.841 14.4283C127.026 14.8133 128.054 15.8411 130.108 17.8965L140.816 28.6079C142.869 30.662 143.896 31.6891 144.281 32.8733C144.619 33.915 144.619 35.0371 144.281 36.0788C143.896 37.263 142.869 38.2901 140.816 40.3442L117.665 63.5035H150.401C153.307 63.5035 154.76 63.5035 155.869 64.0689C156.845 64.5663 157.639 65.3599 158.136 66.336C158.702 67.4457 158.702 68.8984 158.702 71.8038V86.955C158.702 89.8604 158.702 91.3131 158.136 92.4228C157.639 93.3989 156.845 94.1925 155.869 94.6898C154.76 95.2553 153.307 95.2553 150.401 95.2553H8.30027C5.3949 95.2553 3.94222 95.2553 2.83252 94.6898C1.85639 94.1925 1.06278 93.3989 0.565422 92.4228C0 91.3131 0 89.8604 0 86.955V71.8038C0 68.8984 0 67.4457 0.565422 66.336C1.06278 65.3599 1.85639 64.5663 2.83252 64.0689C3.94222 63.5035 5.3949 63.5035 8.30027 63.5035H41.0364L17.8855 40.3447C15.8321 38.2906 14.8054 37.2635 14.4207 36.0793C14.0823 35.0376 14.0823 33.9155 14.4206 32.8738C14.8053 31.6896 15.832 30.6625 17.8854 28.6084L28.593 17.8969C30.6477 15.8415 31.675 14.8138 32.8598 14.4288C33.9019 14.0901 35.0245 14.0901 36.0666 14.4287C37.2514 14.8138 38.2787 15.8415 40.3334 17.8969L63.4807 41.0521V8.30027Z" fill="#506CF7"/>
</svg>
